<svg width="24" height="25" viewBox="0 0 24 25" fill="none" xmlns="http://www.w3.org/2000/svg">
<g clip-path="url(#clip0_12_946)">
<path fill-rule="evenodd" clip-rule="evenodd" d="M6 11C4.61929 11 3.5 12.1193 3.5 13.5C3.5 13.8007 3.64682 14.2987 3.92652 14.9354C4.1972 15.5515 4.562 16.2317 4.9325 16.8704C5.30205 17.5075 5.67231 18.0947 5.95058 18.5232C5.9674 18.5491 5.98388 18.5744 6 18.5991C6.01612 18.5744 6.0326 18.5491 6.04942 18.5232C6.32769 18.0947 6.69795 17.5075 7.0675 16.8704C7.438 16.2317 7.8028 15.5515 8.07348 14.9354C8.35318 14.2987 8.5 13.8007 8.5 13.5C8.5 12.1193 7.38071 11 6 11ZM6 19.5C5.5886 19.7842 5.58857 19.7841 5.58852 19.784L5.57918 19.7705L5.55324 19.7326C5.53069 19.6995 5.49784 19.6511 5.45617 19.5891C5.37285 19.4652 5.25418 19.2869 5.11192 19.0678C4.82769 18.6302 4.44795 18.0281 4.0675 17.3722C3.688 16.718 3.3028 16.0018 3.01098 15.3376C2.72818 14.6939 2.5 14.0278 2.5 13.5C2.5 11.567 4.067 10 6 10C7.933 10 9.5 11.567 9.5 13.5C9.5 14.0278 9.27182 14.6939 8.98902 15.3376C8.6972 16.0018 8.312 16.718 7.9325 17.3722C7.55205 18.0281 7.17231 18.6302 6.88808 19.0678C6.74582 19.2869 6.62714 19.4652 6.54383 19.5891C6.50216 19.6511 6.46931 19.6995 6.44676 19.7326L6.42082 19.7705L6.41148 19.784C6.41143 19.7841 6.4114 19.7842 6 19.5ZM6 19.5L6.41148 19.784C6.31813 19.9192 6.16426 20 6 20C5.83574 20 5.68187 19.9192 5.58852 19.784L6 19.5Z" fill="white"/>
<path fill-rule="evenodd" clip-rule="evenodd" d="M18 3C16.6193 3 15.5 4.11929 15.5 5.5C15.5 5.80065 15.6468 6.29872 15.9265 6.93537C16.1972 7.55148 16.562 8.23174 16.9325 8.87043C17.302 9.50748 17.6723 10.0947 17.9506 10.5232C17.9674 10.5491 17.9839 10.5744 18 10.5991C18.0161 10.5744 18.0326 10.5491 18.0494 10.5232C18.3277 10.0947 18.698 9.50748 19.0675 8.87043C19.438 8.23174 19.8028 7.55148 20.0735 6.93537C20.3532 6.29872 20.5 5.80065 20.5 5.5C20.5 4.11929 19.3807 3 18 3ZM18 11.5C17.5886 11.7842 17.5886 11.7841 17.5885 11.784L17.5792 11.7705L17.5532 11.7326C17.5307 11.6995 17.4978 11.6511 17.4562 11.5891C17.3729 11.4652 17.2542 11.2869 17.1119 11.0678C16.8277 10.6302 16.448 10.0281 16.0675 9.37221C15.688 8.718 15.3028 8.00182 15.011 7.3376C14.7282 6.69392 14.5 6.02777 14.5 5.5C14.5 3.567 16.067 2 18 2C19.933 2 21.5 3.567 21.5 5.5C21.5 6.02777 21.2718 6.69392 20.989 7.3376C20.6972 8.00182 20.312 8.718 19.9325 9.37221C19.552 10.0281 19.1723 10.6302 18.8881 11.0678C18.7458 11.2869 18.6271 11.4652 18.5438 11.5891C18.5022 11.6511 18.4693 11.6995 18.4468 11.7326L18.4208 11.7705L18.4115 11.784C18.4114 11.7841 18.4114 11.7842 18 11.5ZM18 11.5L18.4115 11.784C18.3181 11.9192 18.1643 12 18 12C17.8357 12 17.6819 11.9192 17.5885 11.784L18 11.5Z" fill="white"/>
<path fill-rule="evenodd" clip-rule="evenodd" d="M14 12C13.1716 12 12.5 12.6716 12.5 13.5C12.5 14.3284 13.1716 15 14 15H19C20.3807 15 21.5 16.1193 21.5 17.5C21.5 18.8807 20.3807 20 19 20H6V19H19C19.8284 19 20.5 18.3284 20.5 17.5C20.5 16.6716 19.8284 16 19 16H14C12.6193 16 11.5 14.8807 11.5 13.5C11.5 12.1193 12.6193 11 14 11H18V12H14Z" fill="white"/>
</g>
<defs>
<clipPath id="clip0_12_946">
<rect width="24" height="24" fill="white" transform="translate(0 0.5)"/>
</clipPath>
</defs>
</svg>
