<svg width="24" height="24" viewBox="0 0 24 24" fill="none" xmlns="http://www.w3.org/2000/svg">
<path fill-rule="evenodd" clip-rule="evenodd" d="M12.0004 7.54547C9.54027 7.54547 7.5459 9.53984 7.5459 12C7.5459 14.4602 9.54027 16.4546 12.0004 16.4546C14.4606 16.4546 16.455 14.4602 16.455 12C16.455 9.53984 14.4606 7.54547 12.0004 7.54547ZM5.5459 12C5.5459 8.43527 8.4357 5.54547 12.0004 5.54547C15.5652 5.54547 18.455 8.43527 18.455 12C18.455 15.5648 15.5652 18.4546 12.0004 18.4546C8.4357 18.4546 5.5459 15.5648 5.5459 12Z" fill="#004AAD"/>
<path fill-rule="evenodd" clip-rule="evenodd" d="M11 4.27273V2H13V4.27273H11Z" fill="#004AAD"/>
<path fill-rule="evenodd" clip-rule="evenodd" d="M11 22V19.7273H13V22H11Z" fill="#004AAD"/>
<path fill-rule="evenodd" clip-rule="evenodd" d="M4.27273 13H2V11H4.27273V13Z" fill="#004AAD"/>
<path fill-rule="evenodd" clip-rule="evenodd" d="M22.0003 13H19.7275V11H22.0003V13Z" fill="#004AAD"/>
<path fill-rule="evenodd" clip-rule="evenodd" d="M5.82874 7.24311L4.22168 5.63605L5.63589 4.22183L7.24295 5.82889L5.82874 7.24311Z" fill="#004AAD"/>
<path fill-rule="evenodd" clip-rule="evenodd" d="M18.3639 19.7781L16.7568 18.1711L18.171 16.7569L19.7781 18.3639L18.3639 19.7781Z" fill="#004AAD"/>
<path fill-rule="evenodd" clip-rule="evenodd" d="M18.1713 7.24311L19.7783 5.63605L18.3641 4.22183L16.757 5.82889L18.1713 7.24311Z" fill="#004AAD"/>
<path fill-rule="evenodd" clip-rule="evenodd" d="M5.6361 19.7781L7.24316 18.1711L5.82895 16.7569L4.22189 18.3639L5.6361 19.7781Z" fill="#004AAD"/>
</svg>
