<svg width="24" height="24" viewBox="0 0 24 24" fill="none" xmlns="http://www.w3.org/2000/svg">
<path fill-rule="evenodd" clip-rule="evenodd" d="M11 22V2H13V22H11Z" fill="#004AAD"/>
<path fill-rule="evenodd" clip-rule="evenodd" d="M11.1999 6.88571L8.34277 3.07619L9.94277 1.87619L11.9999 4.61905L14.0571 1.87619L15.6571 3.07619L12.7999 6.88571L11.9999 6.28571L11.1999 6.88571Z" fill="#004AAD"/>
<path fill-rule="evenodd" clip-rule="evenodd" d="M11.1999 17.1143L8.34277 20.9238L9.94277 22.1238L11.9999 19.381L14.0571 22.1238L15.6571 20.9238L12.7999 17.1143L11.9999 17.7143L11.1999 17.1143Z" fill="#004AAD"/>
<path fill-rule="evenodd" clip-rule="evenodd" d="M20.1604 17.866L2.83984 7.86603L3.83984 6.13398L21.1604 16.134L20.1604 17.866Z" fill="#004AAD"/>
<path fill-rule="evenodd" clip-rule="evenodd" d="M7.17124 10.1357L2.44353 10.7053L2.2043 8.71965L5.60825 8.30954L4.26144 5.15657L6.10067 4.37093L7.97124 8.75005L7.05163 9.14287L7.17124 10.1357Z" fill="#004AAD"/>
<path fill-rule="evenodd" clip-rule="evenodd" d="M16.0287 15.25L17.8992 19.6291L19.7385 18.8435L18.3917 15.6905L21.7956 15.2804L21.5564 13.2947L16.8287 13.8643L16.9483 14.8572L16.0287 15.25Z" fill="#004AAD"/>
<path fill-rule="evenodd" clip-rule="evenodd" d="M20.1604 6.13394L2.83984 16.1339L3.83984 17.866L21.1604 7.86599L20.1604 6.13394Z" fill="#004AAD"/>
<path fill-rule="evenodd" clip-rule="evenodd" d="M7.17124 13.8643L2.44353 13.2947L2.2043 15.2804L5.60825 15.6905L4.26144 18.8434L6.10067 19.6291L7.97124 15.25L7.05163 14.8571L7.17124 13.8643Z" fill="#004AAD"/>
<path fill-rule="evenodd" clip-rule="evenodd" d="M16.0287 8.75002L17.8992 4.3709L19.7385 5.15655L18.3917 8.30951L21.7956 8.71962L21.5564 10.7053L16.8287 10.1357L16.9483 9.14284L16.0287 8.75002Z" fill="#004AAD"/>
</svg>
