<svg width="24" height="24" viewBox="0 0 24 24" fill="none" xmlns="http://www.w3.org/2000/svg">
<path fill-rule="evenodd" clip-rule="evenodd" d="M11.0625 4C8.29673 4 6.125 6.14234 6.125 8.7C6.125 8.78263 6.12723 8.86467 6.13163 8.94606C6.14644 9.22024 6.04786 9.48845 5.85901 9.68777C5.67016 9.8871 5.40766 10 5.13308 10H5.125C3.91253 10 3 10.9335 3 12C3 13.0665 3.91253 14 5.125 14H17.625C17.9552 14 18.2645 13.9297 18.5394 13.806C18.5635 13.7951 18.5879 13.7853 18.6128 13.7764C20.0295 13.2693 21 11.9761 21 10.5C21 8.60508 19.3879 7 17.3125 7C17.0476 7 16.7902 7.02639 16.5429 7.07619C16.1106 7.16321 15.6724 6.95686 15.4641 6.56823C14.6533 5.05526 12.9964 4 11.0625 4ZM4.15109 8.11295C4.4599 4.65624 7.47073 2 11.0625 2C13.4746 2 15.6134 3.19148 16.859 5.01727C17.0088 5.00582 17.16 5 17.3125 5C20.4148 5 23 7.42435 23 10.5C23 12.8752 21.4506 14.8686 19.3232 15.6462C18.8033 15.8741 18.2276 16 17.625 16H5.125C2.88569 16 1 14.2472 1 12C1 10.0882 2.36482 8.53421 4.15109 8.11295Z" fill="#004AAD"/>
<path fill-rule="evenodd" clip-rule="evenodd" d="M5 20.5V17.5H7V20.5H5Z" fill="#004AAD"/>
<path fill-rule="evenodd" clip-rule="evenodd" d="M9 20.5V17.5H11V20.5H9Z" fill="#004AAD"/>
<path fill-rule="evenodd" clip-rule="evenodd" d="M13 20.5V17.5H15V20.5H13Z" fill="#004AAD"/>
<path fill-rule="evenodd" clip-rule="evenodd" d="M17 20.5V17.5H19V20.5H17Z" fill="#004AAD"/>
</svg>
