<svg width="24" height="24" viewBox="0 0 24 24" fill="none" xmlns="http://www.w3.org/2000/svg">
<path fill-rule="evenodd" clip-rule="evenodd" d="M11.0625 3C8.29673 3 6.125 5.14234 6.125 7.7C6.125 7.78263 6.12723 7.86467 6.13163 7.94606C6.14644 8.22024 6.04786 8.48845 5.85901 8.68777C5.67016 8.8871 5.40766 9 5.13308 9H5.125C3.91253 9 3 9.93351 3 11C3 12.0665 3.91253 13 5.125 13H17.625C17.9552 13 18.2645 12.9297 18.5394 12.806C18.5635 12.7951 18.5879 12.7853 18.6128 12.7764C20.0295 12.2693 21 10.9761 21 9.5C21 7.60508 19.3879 6 17.3125 6C17.0476 6 16.7902 6.02639 16.5429 6.07619C16.1106 6.16321 15.6724 5.95686 15.4641 5.56823C14.6533 4.05526 12.9964 3 11.0625 3ZM4.15109 7.11295C4.4599 3.65624 7.47073 1 11.0625 1C13.4746 1 15.6134 2.19148 16.859 4.01727C17.0088 4.00582 17.16 4 17.3125 4C20.4148 4 23 6.42435 23 9.5C23 11.8752 21.4506 13.8686 19.3232 14.6462C18.8033 14.8741 18.2276 15 17.625 15H5.125C2.88569 15 1 13.2472 1 11C1 9.08817 2.36482 7.53421 4.15109 7.11295Z" fill="#004AAD"/>
<path fill-rule="evenodd" clip-rule="evenodd" d="M9.10557 17.5528L11.1056 13.5528L12.8944 14.4472L11.618 17H14C14.3466 17 14.6684 17.1795 14.8507 17.4743C15.0329 17.7691 15.0494 18.1372 14.8944 18.4472L12.8944 22.4472L11.1056 21.5528L12.382 19H10C9.65342 19 9.33156 18.8206 9.14935 18.5257C8.96714 18.2309 8.95058 17.8628 9.10557 17.5528Z" fill="#004AAD"/>
<path fill-rule="evenodd" clip-rule="evenodd" d="M3.60557 16.5528L5.10557 13.5528L6.89443 14.4472L6.11804 16H7.5C7.84658 16 8.16845 16.1795 8.35065 16.4743C8.53286 16.7691 8.54942 17.1372 8.39443 17.4472L6.89443 20.4472L5.10557 19.5528L5.88197 18H4.5C4.15342 18 3.83156 17.8206 3.64935 17.5257C3.46714 17.2309 3.45058 16.8628 3.60557 16.5528Z" fill="#004AAD"/>
<path fill-rule="evenodd" clip-rule="evenodd" d="M16.1056 16.5528L17.6056 13.5528L19.3944 14.4472L18.618 16H20C20.3466 16 20.6684 16.1795 20.8507 16.4743C21.0329 16.7691 21.0494 17.1372 20.8944 17.4472L19.3944 20.4472L17.6056 19.5528L18.382 18H17C16.6534 18 16.3316 17.8206 16.1494 17.5257C15.9671 17.2309 15.9506 16.8628 16.1056 16.5528Z" fill="#004AAD"/>
</svg>
