<svg xmlns="http://www.w3.org/2000/svg" width="64" height="64" enable-background="new 0 0 64 64" viewBox="0 0 64 64" id="gluten-free">
  <path fill="#ED5565" d="M1,32C1,14.88,14.88,1,32,1c17.119,0,31,13.88,31,31S49.119,63,32,63C14.88,63,1,49.12,1,32z M32,4
			C16.529,4,4,16.54,4,32c0,7.73,3.13,14.73,8.199,19.8C17.26,56.87,24.26,60,32,60c15.46,0,28-12.54,28-28
			c0-7.729-3.141-14.729-8.2-19.8C46.729,7.13,39.729,4,32,4z"></path>
  <path fill="#E6E9ED" d="M51.8,12.2C46.729,7.13,39.729,4,32,4C16.529,4,4,16.54,4,32c0,7.73,3.13,14.73,8.199,19.8
			C17.26,56.87,24.26,60,32,60c15.46,0,28-12.54,28-28C60,24.271,56.859,17.271,51.8,12.2z"></path>
  <path fill="#FFCE54" d="M36,20.01h-0.011c-2.21,0.011-3.989,1.79-3.989,4h-0.011c0-2.21-1.77-3.989-3.989-4h-0.011
			C25.779,20,24,18.221,24,16.01v6v6v6V40l-0.011,0.01L24,40.021c0,2.21,1.779,3.989,3.989,4H28c2.22,0.01,3.989,1.79,3.989,4H32
			c0-2.21,1.779-3.99,3.989-4H36c2.21-0.011,3.989-1.79,3.989-4V40v-5.99v-6v-4v-2v-6C39.989,18.221,38.21,20,36,20.01z"></path>
  <path fill="#F6BB42" d="M35.995,45.016c-0.553,0-1-0.447-1-1s0.447-1,1-1c1.654,0,3-1.346,3-3c0-0.553,0.447-1,1-1s1,0.447,1,1
			C40.995,42.772,38.752,45.016,35.995,45.016z"></path>
  <path fill="#F6BB42" d="M32.003 49.02c-.553 0-1-.447-1-1 0-2.757 2.243-5 5-5 .553 0 1 .447 1 1s-.447 1-1 1c-1.654 0-3 1.346-3 3C33.003 48.572 32.556 49.02 32.003 49.02zM35.995 39.015c-.553 0-1-.447-1-1s.447-1 1-1c1.654 0 3-1.347 3-3.002 0-.553.447-1 1-1s1 .447 1 1C40.995 36.771 38.752 39.015 35.995 39.015z"></path>
  <path fill="#F6BB42" d="M39.995 41c-.553 0-1-.447-1-1v-5.987c0-.553.447-1 1-1s1 .447 1 1V40C40.995 40.553 40.548 41 39.995 41zM32.003 43.02c-.553 0-1-.447-1-1 0-2.758 2.243-5.001 5-5.001.553 0 1 .447 1 1s-.447 1-1 1c-1.654 0-3 1.347-3 3.001C33.003 42.572 32.556 43.02 32.003 43.02z"></path>
  <path fill="#F6BB42" d="M32.003 49.02c-.553 0-1-.447-1-1v-6c0-.553.447-1 1-1s1 .447 1 1v6C33.003 48.572 32.556 49.02 32.003 49.02zM35.995 33.01c-.553 0-1-.447-1-1s.447-1 1-1c1.654 0 3-1.346 3-3 0-.553.447-1 1-1s1 .447 1 1C40.995 30.767 38.752 33.01 35.995 33.01z"></path>
  <path fill="#F6BB42" d="M39.995 35.011c-.553 0-1-.447-1-1V28.01c0-.553.447-1 1-1s1 .447 1 1v6.001C40.995 34.563 40.548 35.011 39.995 35.011zM32.003 37.016c-.553 0-1-.447-1-1 0-2.758 2.243-5.002 5-5.002.553 0 1 .447 1 1s-.447 1-1 1c-1.654 0-3 1.347-3 3.002C33.003 36.568 32.556 37.016 32.003 37.016z"></path>
  <path fill="#F6BB42" d="M32.003 43.018c-.553 0-1-.447-1-1v-6.002c0-.553.447-1 1-1s1 .447 1 1v6.002C33.003 42.57 32.556 43.018 32.003 43.018zM35.995 27.008c-.553 0-1-.447-1-1s.447-1 1-1c1.654 0 3-1.346 3-3 0-.553.447-1 1-1s1 .447 1 1C40.995 24.765 38.752 27.008 35.995 27.008z"></path>
  <path fill="#F6BB42" d="M39.995 29.008c-.553 0-1-.447-1-1v-6c0-.553.447-1 1-1s1 .447 1 1v6C40.995 28.561 40.548 29.008 39.995 29.008zM32.003 31.012c-.553 0-1-.447-1-1 0-2.757 2.243-5 5-5 .553 0 1 .447 1 1s-.447 1-1 1c-1.654 0-3 1.346-3 3C33.003 30.564 32.556 31.012 32.003 31.012z"></path>
  <path fill="#F6BB42" d="M32.003 37.014c-.553 0-1-.447-1-1v-6.002c0-.553.447-1 1-1s1 .447 1 1v6.002C33.003 36.566 32.556 37.014 32.003 37.014zM35.995 21.006c-.553 0-1-.447-1-1s.447-1 1-1c1.654 0 3-1.346 3-3 0-.553.447-1 1-1s1 .447 1 1C40.995 18.763 38.752 21.006 35.995 21.006z"></path>
  <path fill="#F6BB42" d="M39.995 23.006c-.553 0-1-.447-1-1v-6c0-.553.447-1 1-1s1 .447 1 1v6C40.995 22.559 40.548 23.006 39.995 23.006zM32.003 25.01c-.553 0-1-.447-1-1 0-2.757 2.243-5 5-5 .553 0 1 .447 1 1s-.447 1-1 1c-1.654 0-3 1.346-3 3C33.003 24.563 32.556 25.01 32.003 25.01z"></path>
  <path fill="#F6BB42" d="M32.003 31.01c-.553 0-1-.447-1-1v-6c0-.553.447-1 1-1s1 .447 1 1v6C33.003 30.563 32.556 31.01 32.003 31.01zM28.005 45.016c-2.757 0-5-2.243-5-5 0-.553.447-1 1-1s1 .447 1 1c0 1.654 1.346 3 3 3 .553 0 1 .447 1 1S28.558 45.016 28.005 45.016z"></path>
  <path fill="#F6BB42" d="M31.997 49.02c-.553 0-1-.447-1-1 0-1.654-1.346-3-3-3-.553 0-1-.447-1-1s.447-1 1-1c2.757 0 5 2.243 5 5C32.997 48.572 32.55 49.02 31.997 49.02zM28.005 39.015c-2.757 0-5-2.244-5-5.002 0-.553.447-1 1-1s1 .447 1 1c0 1.655 1.346 3.002 3 3.002.553 0 1 .447 1 1S28.558 39.015 28.005 39.015z"></path>
  <path fill="#F6BB42" d="M24.005 41c-.553 0-1-.447-1-1v-5.987c0-.553.447-1 1-1s1 .447 1 1V40C25.005 40.553 24.558 41 24.005 41zM31.997 43.02c-.553 0-1-.447-1-1 0-1.654-1.346-3.001-3-3.001-.553 0-1-.447-1-1s.447-1 1-1c2.757 0 5 2.243 5 5.001C32.997 42.572 32.55 43.02 31.997 43.02zM28.005 33.01c-2.757 0-5-2.243-5-5 0-.553.447-1 1-1s1 .447 1 1c0 1.654 1.346 3 3 3 .553 0 1 .447 1 1S28.558 33.01 28.005 33.01z"></path>
  <path fill="#F6BB42" d="M24.005 35.011c-.553 0-1-.447-1-1V28.01c0-.553.447-1 1-1s1 .447 1 1v6.001C25.005 34.563 24.558 35.011 24.005 35.011zM31.997 37.016c-.553 0-1-.447-1-1 0-1.655-1.346-3.002-3-3.002-.553 0-1-.447-1-1s.447-1 1-1c2.757 0 5 2.244 5 5.002C32.997 36.568 32.55 37.016 31.997 37.016zM28.005 27.008c-2.757 0-5-2.243-5-5 0-.553.447-1 1-1s1 .447 1 1c0 1.654 1.346 3 3 3 .553 0 1 .447 1 1S28.558 27.008 28.005 27.008z"></path>
  <path fill="#F6BB42" d="M24.005 29.008c-.553 0-1-.447-1-1v-6c0-.553.447-1 1-1s1 .447 1 1v6C25.005 28.561 24.558 29.008 24.005 29.008zM31.997 31.012c-.553 0-1-.447-1-1 0-1.654-1.346-3-3-3-.553 0-1-.447-1-1s.447-1 1-1c2.757 0 5 2.243 5 5C32.997 30.564 32.55 31.012 31.997 31.012zM28.005 21.006c-2.757 0-5-2.243-5-5 0-.553.447-1 1-1s1 .447 1 1c0 1.654 1.346 3 3 3 .553 0 1 .447 1 1S28.558 21.006 28.005 21.006z"></path>
  <path fill="#F6BB42" d="M24.005,23.006c-0.553,0-1-0.447-1-1v-6c0-0.553,0.447-1,1-1s1,0.447,1,1v6
			C25.005,22.559,24.558,23.006,24.005,23.006z"></path>
  <g>
    <path fill="#F6BB42" d="M31.997,25.01c-0.553,0-1-0.447-1-1c0-1.654-1.346-3-3-3c-0.553,0-1-0.447-1-1s0.447-1,1-1
			c2.757,0,5,2.243,5,5C32.997,24.563,32.55,25.01,31.997,25.01z"></path>
  </g>
  <g>
    <path fill="#F6BB42" d="M32.003,25.01c-0.553,0-1-0.447-1-1V11.005c0-0.552,0.447-1,1-1s1,0.448,1,1V24.01
			C33.003,24.563,32.556,25.01,32.003,25.01z"></path>
  </g>
  <g>
    <path fill="#F6BB42" d="M36.003,21.006c-0.553,0-1-0.447-1-1v-6.002c0-0.553,0.447-1,1-1s1,0.447,1,1v6.002
			C37.003,20.559,36.556,21.006,36.003,21.006z"></path>
  </g>
  <g>
    <path fill="#F6BB42" d="M28.005,21.006c-0.553,0-1-0.447-1-1v-6.002c0-0.553,0.447-1,1-1s1,0.447,1,1v6.002
			C29.005,20.559,28.558,21.006,28.005,21.006z"></path>
  </g>
  <path fill="#F6BB42" d="M32.003,47.02c-0.553,0-1,0.447-1,1v11.955C31.334,59.986,31.666,60,32,60c0.336,0,0.67-0.014,1.003-0.025
		V48.02C33.003,47.467,32.556,47.02,32.003,47.02z"></path>
  <g>
    <path fill="#ED5565" d="M12.201,52.799c-0.256,0-0.512-0.098-0.707-0.293c-0.391-0.391-0.391-1.023,0-1.414l39.598-39.598
			c0.391-0.391,1.023-0.391,1.414,0s0.391,1.023,0,1.414L12.908,52.506C12.713,52.701,12.457,52.799,12.201,52.799z"></path>
  </g>
</svg>
