<svg xmlns="http://www.w3.org/2000/svg" viewBox="0 0 64 64" id="meat">
  <path fill="#ce303f" d="M14.188,19.138l6.845,8.941,5.723-8.586.427-11.936L18.728,5.818l-.873.485A9.439,9.439,0,0,0,13,14.554h0a9.439,9.439,0,0,0,1.188,4.584l.04.073"></path>
  <path fill="#e73844" d="M18.374,19.122,18.3,18.9a25.361,25.361,0,0,1-1.3-8.02h0a8.293,8.293,0,0,1,2.984-6.371h0A10.843,10.843,0,0,1,26.926,2h0a10.84,10.84,0,0,1,7.14,2.683h0a37.635,37.635,0,0,1,8.118,10.048h0a23.528,23.528,0,0,0,4.556,5.814l7.937,7.37A10.4,10.4,0,0,1,58,35.534h0a10.4,10.4,0,0,1-2.007,6.141"></path>
  <path fill="#ff4d55" d="M25.837,20.613A65.513,65.513,0,0,0,46.119,28.1,13.4,13.4,0,0,1,56.948,40.077a10.375,10.375,0,0,0-2.271-12.162l-7.937-7.37a23.528,23.528,0,0,1-4.556-5.814A37.635,37.635,0,0,0,34.066,4.683a10.843,10.843,0,0,0-14.082-.17A8.293,8.293,0,0,0,17,10.884h0a25.365,25.365,0,0,0,1.067,7.21,18.723,18.723,0,0,1,7.509,2.369Z"></path>
  <path fill="#ffeacd" d="M22.863 10a5.154 5.154 0 015.073 4.232 20.247 20.247 0 005.63 10.748l2.2 2.2L39.458 31.2l1.473-1.353-3.724-4.053L34.98 23.566a18.329 18.329 0 01-2.84-3.687A17.574 17.574 0 0137.954 8.76l.063-.046c-.431-.51-.873-1.009-1.331-1.495a19.6 19.6 0 00-5.981 9.611 18.536 18.536 0 01-.8-2.955A7.155 7.155 0 0018.9 9.2l-1.87 1.231c-.008.151-.025.3-.025.452h0c0 .638.029 1.274.077 1.909L20 10.865A5.143 5.143 0 0122.863 10zM46.512 29.988l2.346 3.581 1.672-1.1-2.336-3.566A27.391 27.391 0 0144.216 17.8a23.446 23.446 0 01-2.032-3.064c-.07-.127-.147-.249-.219-.374l.092 1.838A29.377 29.377 0 0046.512 29.988z"></path>
  <path fill="#ce303f" d="M53.839,48.241A12.367,12.367,0,0,1,51.92,53.12l-1.968,2.952A13.31,13.31,0,0,1,38.876,62h0a13.309,13.309,0,0,1-8.6-3.15h0a149.9,149.9,0,0,0-19.7-14.1h0A9.429,9.429,0,0,1,6,36.661V29.3"></path>
  <path fill="#e73844" d="M12.8,40.6h0A12.786,12.786,0,0,1,6,29.3H6a10.3,10.3,0,0,1,4.314-8.382h0A10.3,10.3,0,0,1,16.3,19h0a17.7,17.7,0,0,1,8.779,2.331l.258.148a66.638,66.638,0,0,0,20.593,7.6h0A12.387,12.387,0,0,1,56,41.25h0a12.387,12.387,0,0,1-2.08,6.87l-1.968,2.952A13.31,13.31,0,0,1,40.876,57h0a13.309,13.309,0,0,1-8.6-3.15l-.471-.4A106.674,106.674,0,0,0,12.8,40.6Z"></path>
  <path fill="#ff4d55" d="M45.931,29.082h0a66.638,66.638,0,0,1-20.593-7.6l-.258-.148A17.7,17.7,0,0,0,16.3,19a10.3,10.3,0,0,0-5.987,1.919c-.072.051-.133.111-.2.164A10.287,10.287,0,0,0,8,27.3a12.786,12.786,0,0,0,6.8,11.3,106.674,106.674,0,0,1,19,12.85l.471.4a13.258,13.258,0,0,0,16.954.17c.247-.309.5-.615.72-.947L53.92,48.12a12.386,12.386,0,0,0-7.989-19.038Z"></path>
  <path fill="#ff959d" d="M40.876,53a9.328,9.328,0,0,1-6.016-2.2l-.469-.4A110.908,110.908,0,0,0,14.675,37.067,8.77,8.77,0,0,1,10,29.3,6.3,6.3,0,0,1,16.3,23a13.718,13.718,0,0,1,6.8,1.8l.246.141a70.533,70.533,0,0,0,21.841,8.066A8.386,8.386,0,0,1,50.592,45.9l-1.968,2.953A9.3,9.3,0,0,1,40.876,53Z"></path>
  <path fill="#ffeacd" d="M49.083,39h0a19.851,19.851,0,0,0-16.244,8.513,22.029,22.029,0,0,0-2.178-7.432,32.641,32.641,0,0,0-3.8-5.892,7.664,7.664,0,0,0,4.865-5.171c-.623-.254-1.24-.523-1.856-.8l-.037.173a5.638,5.638,0,0,1-4.418,4.12A32.7,32.7,0,0,0,19.552,27.5l-5.873-3.915a6.342,6.342,0,0,0-1.04.59,6.2,6.2,0,0,0-.724.615l6.527,4.374A30.742,30.742,0,0,1,28.869,40.976a20.015,20.015,0,0,1,1.955,6.543q1.465,1.14,2.893,2.326L33.8,49.7A17.831,17.831,0,0,1,49.08,41h2.909a8.382,8.382,0,0,0-.3-2Z"></path>
  <path fill="#ffeacd" d="M34.127,30.843A7.345,7.345,0,0,0,41.4,37a7.711,7.711,0,0,0,6.194-3.125,8.276,8.276,0,0,0-1.955-.756A5.719,5.719,0,0,1,41.4,35a5.344,5.344,0,0,1-5.26-4.35c-.723-.24-1.445-.484-2.159-.747l.038.262Z"></path>
</svg>
