<svg xmlns="http://www.w3.org/2000/svg" width="64" height="64" enable-background="new 0 0 64 64" viewBox="0 0 64 64" id="milk-lactose-free">
  <path fill="#656D78" d="M51.8,12.2C46.73,7.14,39.73,4,32,4C16.54,4,4,16.54,4,32c0,7.73,3.14,14.73,8.2,19.8
			C17.27,56.86,24.27,60,32,60c15.46,0,28-12.54,28-28C60,24.27,56.86,17.27,51.8,12.2z"></path>
  <polygon fill="#FFF" points="19 21 19 45 19 51 37 51 37 27 37 21"></polygon>
  <polygon fill="#CCD1D9" points="45 51 37 51 41 47"></polygon>
  <path fill="#CCD1D9" d="M40,13c0.55,0,1,0.45,1,1v2.991c0,0.55-0.45,1-1,1H24c-0.55,0-1-0.45-1-1V14c0-0.55,0.45-1,1-1H40z"></path>
  <polygon fill="#FFF" points="45 21 45 51 41 47 41 21 43 21"></polygon>
  <polygon fill="#E6E9ED" points="41 16.99 37 21 19 21 23 16.99"></polygon>
  <polygon fill="#CCD1D9" points="41 16.99 45 21 43 21 41 21 37 21"></polygon>
  <polygon fill="#E6E9ED" points="37 21 37 27 37 51 41 47 41 23 41 21"></polygon>
  <path fill="#DA4453" d="M12.201,52.799c-0.256,0-0.512-0.098-0.707-0.293c-0.391-0.391-0.391-1.023,0-1.414l39.598-39.598
			c0.391-0.391,1.023-0.391,1.414,0s0.391,1.023,0,1.414L12.908,52.506C12.713,52.701,12.457,52.799,12.201,52.799z"></path>
  <path fill="#ED5565" d="M32,60c15.46,0,28-12.54,28-28c0-7.73-3.14-14.73-8.2-19.8C46.73,7.14,39.73,4,32,4C16.54,4,4,16.54,4,32
			c0,7.73,3.14,14.73,8.2,19.8C17.27,56.86,24.27,60,32,60z M32,1c17.12,0,31,13.88,31,31S49.12,63,32,63S1,49.12,1,32S14.88,1,32,1
			z"></path>
</svg>
