<svg width="156" height="64" viewBox="0 0 156 64" fill="none" xmlns="http://www.w3.org/2000/svg">
<path d="M19.7432 12.5006H26.904V32.8777H19.7432V12.5006Z" fill="#004AAD"/>
<path d="M36.0671 33.3423C34.8838 33.3423 33.7695 33.1201 32.7227 32.6757C31.6742 32.2312 30.7539 31.6117 29.9582 30.8171C29.1626 30.0225 28.5422 29.1033 28.0972 28.0561C27.6522 27.0056 27.4297 25.8911 27.4297 24.7093C27.4297 23.5107 27.6522 22.3928 28.0972 21.3558C28.5422 20.3187 29.1626 19.4029 29.9582 18.6083C30.7539 17.8137 31.6742 17.1942 32.7227 16.7497C33.7695 16.3019 34.8838 16.0763 36.0671 16.0763C37.2707 16.0763 38.3934 16.3019 39.4318 16.7497C40.4701 17.1942 41.3872 17.8137 42.1828 18.6083C42.9784 19.4029 43.5988 20.3187 44.0438 21.3558C44.4888 22.3928 44.7113 23.5107 44.7113 24.7093C44.7113 25.8911 44.4888 27.0056 44.0438 28.0561C43.5988 29.1033 42.9784 30.0225 42.1828 30.8171C41.3872 31.6117 40.4701 32.2312 39.4318 32.6757C38.3934 33.1201 37.2707 33.3423 36.0671 33.3423ZM36.0671 23.2278C35.6626 23.2278 35.3136 23.3743 35.022 23.6655C34.7287 23.9585 34.5837 24.3053 34.5837 24.7093C34.5837 25.1184 34.7287 25.4686 35.022 25.7598C35.3136 26.0477 35.6626 26.1908 36.0671 26.1908C36.4751 26.1908 36.824 26.0477 37.1123 25.7598C37.4039 25.4686 37.5505 25.1184 37.5505 24.7093C37.5505 24.3053 37.4039 23.9585 37.1123 23.6655C36.824 23.3743 36.4751 23.2278 36.0671 23.2278Z" fill="#004AAD"/>
<path d="M53.7921 16.11C54.9553 16.11 56.0543 16.3288 57.0893 16.7632C58.1277 17.1992 59.0397 17.8002 59.8269 18.5679C60.6124 19.3322 61.2378 20.2278 61.7014 21.2548C62.1683 22.2783 62.4127 23.3726 62.4363 24.5342H55.2418C55.2047 24.1672 55.0497 23.8608 54.7766 23.6184C54.5069 23.376 54.1782 23.2548 53.7921 23.2548C53.3825 23.2548 53.0319 23.4012 52.7403 23.6925C52.452 23.9854 52.3087 24.3356 52.3087 24.743C52.3087 25.147 52.452 25.4955 52.7403 25.7868C53.0319 26.0797 53.3825 26.2245 53.7921 26.2245C54.1782 26.2245 54.5069 26.1033 54.7766 25.8608C55.0497 25.6184 55.2047 25.3137 55.2418 24.945H62.4363C62.4127 26.1083 62.1683 27.2043 61.7014 28.2312C61.2378 29.2548 60.6124 30.1605 59.8269 30.945C59.0397 31.7312 58.1277 32.3457 57.0893 32.7901C56.0543 33.2346 54.9553 33.4568 53.7921 33.4568C52.6054 33.4568 51.4878 33.2295 50.441 32.7767C49.3925 32.3187 48.4721 31.6891 47.6765 30.8844C46.8808 30.0814 46.2605 29.1521 45.8155 28.0965C45.3705 27.0426 45.1479 25.9248 45.1479 24.743C45.1479 23.541 45.3705 22.4198 45.8155 21.3827C46.2605 20.3457 46.8808 19.4299 47.6765 18.6352C48.4721 17.8406 49.3925 17.2211 50.441 16.7767C51.4878 16.3322 52.6054 16.11 53.7921 16.11Z" fill="#004AAD"/>
<path d="M71.3911 16.0763C72.5542 16.0763 73.6398 16.2969 74.6478 16.7363C75.6593 17.1723 76.5527 17.7733 77.3315 18.541C78.1086 19.3053 78.7154 20.1959 79.152 21.2144C79.5869 22.2295 79.806 23.3187 79.806 24.4804V32.8777H72.8206V24.4804C72.8206 24.0898 72.679 23.7514 72.3958 23.4635C72.1159 23.1723 71.7822 23.0258 71.3911 23.0258C70.9865 23.0258 70.6427 23.1723 70.3595 23.4635C70.0796 23.7514 69.9414 24.0898 69.9414 24.4804C69.9414 24.8676 70.0796 25.206 70.3595 25.4972C70.6427 25.7851 70.9865 25.9282 71.3911 25.9282H72.416V32.8777H71.3911C70.2314 32.8777 69.1407 32.6605 68.1209 32.2245C67.0994 31.7901 66.2059 31.1858 65.4373 30.413C64.672 29.6369 64.0719 28.7464 63.637 27.7396C63.2004 26.7295 62.9829 25.6437 62.9829 24.4804C62.9829 23.3187 63.2004 22.2295 63.637 21.2144C64.0719 20.1959 64.672 19.3053 65.4373 18.541C66.2059 17.7733 67.0994 17.1723 68.1209 16.7363C69.1407 16.2969 70.2314 16.0763 71.3911 16.0763Z" fill="#004AAD"/>
<path d="M80.3545 12.5006H87.5153V32.8777H80.3545V12.5006Z" fill="#004AAD"/>
<path d="M45.5142 50.4738V43.7128H49.0002C48.9597 43.6371 48.9142 43.5647 48.8653 43.4973C48.8198 43.43 48.7776 43.3677 48.7372 43.3088H46.7616C46.0822 42.3441 45.7232 41.329 45.6827 40.265C45.6456 39.201 45.8412 38.2633 46.2693 37.4502C46.7498 36.5209 47.3634 35.8206 48.1101 35.3492C48.8552 34.8744 49.7081 34.5596 50.6656 34.4064C51.6265 34.2499 52.6581 34.1707 53.7605 34.1707H62.0406V40.7297H53.7605C53.1975 40.7297 52.766 40.9283 52.4659 41.3223C52.1692 41.7179 52.058 42.1371 52.1355 42.5815C52.2114 42.9317 52.3884 43.2532 52.6682 43.5445C52.9514 43.8324 53.3357 43.9755 53.8212 43.9755C54.4011 43.9755 54.8158 43.7869 55.0686 43.4098C55.3198 43.0327 55.4074 42.6135 55.3316 42.1505C55.254 41.6842 54.9945 41.3458 54.5494 41.1337H60.3549C60.9921 41.8122 61.4287 42.5243 61.663 43.2684C61.8956 44.0091 61.9799 44.728 61.9125 45.4233C61.8451 46.1202 61.6647 46.7482 61.3731 47.3088C60.8876 48.2381 60.2673 48.925 59.5121 49.3694C58.7569 49.8138 57.8938 50.1101 56.9229 50.2583C55.9553 50.4031 54.922 50.4738 53.8212 50.4738H45.5142Z" fill="#004AAD"/>
<path d="M62.564 54.5075V42.3189C62.564 41.1203 62.7865 40.0058 63.2315 38.9721C63.6765 37.9351 64.2935 37.0226 65.0857 36.2314C65.8814 35.4368 66.8001 34.8172 67.8435 34.3728C68.8903 33.9283 70.0046 33.7061 71.1879 33.7061C72.3881 33.7061 73.5041 33.9283 74.5391 34.3728C75.5775 34.8172 76.4945 35.4368 77.2901 36.2314C78.0858 37.0226 78.7061 37.9351 79.1511 38.9721C79.5961 40.0058 79.8186 41.1203 79.8186 42.3189C79.8186 43.5007 79.5961 44.6135 79.1511 45.659C78.7061 46.7061 78.0858 47.6253 77.2901 48.4199C76.4945 49.2112 75.5775 49.8273 74.5391 50.2718C73.5041 50.7162 72.3881 50.9384 71.1879 50.9384H70.1158V43.8004H71.1879C71.5959 43.8004 71.9448 43.6573 72.2331 43.3694C72.5247 43.0782 72.6713 42.728 72.6713 42.3189C72.6713 41.9149 72.5247 41.5698 72.2331 41.2819C71.9448 40.9906 71.5959 40.8442 71.1879 40.8442C70.7834 40.8442 70.4344 40.9906 70.1428 41.2819C69.8546 41.5698 69.7113 41.9149 69.7113 42.3189V54.5075H62.564Z" fill="#004AAD"/>
<path d="M88.7344 34.1977C90.2212 34.1977 91.6085 34.4788 92.8947 35.0394C94.1843 35.6017 95.221 36.4873 96.0031 37.6994C96.7886 38.9081 97.1831 40.4772 97.1831 42.4064V50.4738H90.0965V42.4064C90.0965 41.9452 89.965 41.5883 89.7054 41.3357C89.4441 41.0849 89.1424 40.9502 88.8019 40.9317C88.4647 40.9098 88.1647 41.0192 87.9051 41.2617C87.6438 41.5041 87.514 41.8862 87.514 42.4064V50.4738H80.3667V30.1371H87.514V34.2852C87.9186 34.228 88.3248 34.1977 88.7344 34.1977Z" fill="#004AAD"/>
<path d="M106.974 43.1337C107.4 42.9014 107.651 42.5782 107.729 42.164C107.805 41.7465 107.712 41.3694 107.452 41.0327C107.191 40.6926 106.759 40.5209 106.158 40.5209C105.654 40.5041 105.271 40.6455 105.011 40.9452C104.75 41.2465 104.615 41.595 104.607 41.9889C104.597 42.3846 104.711 42.7364 104.951 43.0462C105.193 43.3559 105.578 43.5108 106.104 43.5108H114.323V50.4738H106.104C104.939 50.4738 103.853 50.2566 102.847 49.8206C101.839 49.3863 100.949 48.7819 100.177 48.0091C99.4031 47.2381 98.7979 46.3492 98.363 45.3425C97.9264 44.3324 97.709 43.2482 97.709 42.09C97.709 40.5647 98.0529 39.1724 98.7406 37.9149C99.4284 36.659 100.406 35.6489 101.674 34.8846C102.941 34.1169 104.447 33.7246 106.191 33.7061C107.098 33.7061 108.012 33.7937 108.929 33.9687C109.849 34.1438 110.717 34.4738 111.532 34.9586C112.344 35.4401 113.023 36.1539 113.568 37.1001C113.801 37.5041 113.969 37.9873 114.074 38.5479C114.181 39.1102 114.219 39.6859 114.188 40.2785C114.161 40.8677 114.04 41.4166 113.824 41.9283C113.612 42.4401 113.285 42.8425 112.84 43.1337H106.974Z" fill="#004AAD"/>
<path d="M125.216 34.1977V41.0192H122.452C122.164 41.0192 122.02 41.164 122.02 41.4502V50.4738H114.873V41.7398C114.873 40.2145 115.2 38.8896 115.857 37.7667C116.518 36.6455 117.432 35.7701 118.602 35.1405C119.775 34.5125 121.117 34.1977 122.627 34.1977H125.216Z" fill="#004AAD"/>
<path d="M135.003 43.1337C135.429 42.9014 135.68 42.5782 135.758 42.164C135.834 41.7465 135.741 41.3694 135.482 41.0327C135.22 40.6926 134.789 40.5209 134.187 40.5209C133.683 40.5041 133.3 40.6455 133.041 40.9452C132.779 41.2465 132.645 41.595 132.636 41.9889C132.626 42.3846 132.741 42.7364 132.98 43.0462C133.223 43.3559 133.607 43.5108 134.133 43.5108H142.352V50.4738H134.133C132.968 50.4738 131.883 50.2566 130.876 49.8206C129.868 49.3863 128.978 48.7819 128.206 48.0091C127.432 47.2381 126.827 46.3492 126.392 45.3425C125.956 44.3324 125.738 43.2482 125.738 42.09C125.738 40.5647 126.082 39.1724 126.77 37.9149C127.458 36.659 128.435 35.6489 129.703 34.8846C130.971 34.1169 132.476 33.7246 134.221 33.7061C135.128 33.7061 136.041 33.7937 136.958 33.9687C137.879 34.1438 138.747 34.4738 139.561 34.9586C140.373 35.4401 141.053 36.1539 141.597 37.1001C141.83 37.5041 141.998 37.9873 142.103 38.5479C142.211 39.1102 142.248 39.6859 142.218 40.2785C142.191 40.8677 142.069 41.4166 141.853 41.9283C141.641 42.4401 141.314 42.8425 140.869 43.1337H135.003Z" fill="#004AAD"/>
</svg>
