<svg xmlns="http://www.w3.org/2000/svg" enable-background="new 0 0 64 64" viewBox="0 0 64 64" id="star">
  <path fill="#ccc" d="M11.6 42.7c.1 1.5 1.3 2.6 2.8 2.6h.1c1.5-.1 2.7-1.3 2.7-2.8 0 0 0 0 0 0 0-2.3 1.2-4.5 3.1-5.9l.3.5c.3.5.9.8 1.5.8l0 0c.6 0 1.2-.3 1.5-.8l1.7-2.4 2.8-.9c1-.3 1.5-1.3 1.2-2.3-.1-.2-.2-.4-.3-.6l-1.7-2.3v-2.9c0-1-.8-1.8-1.8-1.9 0 0 0 0 0 0-.2 0-.4 0-.6.1L22 24.9l-2.8-.9c-.2-.1-.4-.1-.6-.1-1 0-1.8.8-1.8 1.9v2.9l-1.8 2.3c-.4.5-.5 1.1-.3 1.6.1.3.3.6.6.8C12.9 35.9 11.5 39.2 11.6 42.7zM44 8.5l-3.8-1.9-1.9-3.8c-.3-.5-.8-.9-1.3-1h-.3c-.5 0-1 .2-1.3.5l-3 3L28.2 6c-.6.1-1.1.5-1.4 1-.3.5-.3 1.2 0 1.7l2 3.8-.7 4.2c-.2 1 .5 1.9 1.5 2.1.1 0 .2 0 .3 0h.3l1.9-.3v.1c.7 3-.3 6.1-2.5 8.1-1.1 1-1.2 2.7-.2 3.9 0 0 0 0 0 .1 1 1.1 2.8 1.2 3.9.1 0 0 0 0 0 0 3.1-2.7 4.7-6.7 4.5-10.8l.3.2c.3.1.6.2.8.2.3 0 .6-.1.8-.2.5-.3.9-.8 1-1.4l.6-4.2 3-3c.7-.7.7-1.9 0-2.6C44.3 8.7 44.2 8.6 44 8.5zM51.4 35.4L47 33.2l-2.2-4.4c-.3-.5-.8-.9-1.3-1-.1 0-.2 0-.3 0-.5 0-1 .2-1.3.5l-3.4 3.5-4.8.7c-.6.1-1.1.5-1.4 1-.3.5-.3 1.2 0 1.7l2.3 4.3-.8 4.8c-.2 1 .5 1.9 1.5 2.1.1 0 .2 0 .3 0 .1 0 .2 0 .3 0l2.6-.5c.4 3-.5 10.2-5.7 12.8-.6.3-1.1.9-1.4 1.6-.5 1.4.3 3 1.7 3.5.3.1.6.2.9.2.4 0 .8-.1 1.2-.3 6.3-3.1 8.9-10.4 8.8-16.3l1 .5c.3.1.6.2.8.2.3 0 .6-.1.8-.2.5-.3.9-.8 1-1.4l.7-4.8 3.5-3.4c.4-.4.6-1 .5-1.6C52.3 36.1 51.9 35.6 51.4 35.4z"></path>
  <path fill="#fff" d="M11.6 40.9c.1 1.5 1.3 2.6 2.8 2.6h.1c1.5-.1 2.7-1.3 2.7-2.8 0 0 0 0 0 0 0-2.3 1.2-4.5 3.1-5.9l.3.5c.3.5.9.8 1.5.8l0 0c.6 0 1.1-.3 1.5-.8l1.7-2.4 2.8-.9c1-.3 1.5-1.3 1.2-2.3-.1-.2-.2-.4-.3-.6l-1.7-2.3v-2.9c0-1-.8-1.8-1.8-1.8-.2 0-.4 0-.6.1L22 23l-2.8-.9C19 22 18.8 22 18.6 22c-1 0-1.8.8-1.8 1.9v2.9l-1.8 2.3c-.4.5-.5 1.1-.3 1.6.1.3.3.6.6.8C12.9 34 11.5 37.4 11.6 40.9zM44 6.7l-3.8-1.9L38.3 1C38 .5 37.6.1 37 0h-.3c-.5 0-1 .2-1.3.6l-3 3-4.2.6c-.6.1-1.1.5-1.4 1-.3.5-.3 1.2 0 1.7l2 3.8-.7 4.2c-.1.6.1 1.2.5 1.6.3.3.8.5 1.3.5h.3l1.9-.3v0c.7 3-.3 6.1-2.5 8.1-1.1 1-1.2 2.7-.2 3.9 0 0 0 0 0 .1 1 1.1 2.8 1.2 3.9.1 0 0 0 0 0 0 3.1-2.7 4.7-6.7 4.5-10.8l.3.2c.3.1.6.2.8.2.3 0 .6-.1.8-.2.5-.3.9-.8 1-1.4l.6-4.2 3-3c.7-.7.7-1.9 0-2.6C44.3 6.9 44.2 6.8 44 6.7zM51.4 33.6L47 31.4 44.8 27c-.3-.5-.8-.9-1.3-1-.1 0-.2 0-.3 0-.5 0-1 .2-1.3.5L38.5 30l-4.8.7c-.6.1-1.1.5-1.4 1-.3.5-.3 1.2 0 1.7l2.3 4.3-.8 4.8c-.2 1 .5 1.9 1.5 2.1.1 0 .2 0 .3 0h.3l2.5-.4c.4 3-.5 10.2-5.7 12.8-.6.3-1.1.9-1.4 1.6-.5 1.5.4 3 1.8 3.5.3.1.5.1.8.1.4 0 .8-.1 1.2-.3 6.3-3.1 8.9-10.4 8.8-16.3l1 .5c.3.1.6.2.8.2.3 0 .6-.1.8-.2.5-.3.9-.8 1-1.4l.7-4.8 3.5-3.4c.4-.4.6-1 .5-1.6C52.3 34.3 51.9 33.8 51.4 33.6z"></path>
  <path fill="#010101" d="M17.3 32.3c-2.5 2.1-3.9 5.2-3.8 8.4 0 .5.4.9.9.9l0 0c.5 0 .9-.4.9-1 0 0 0 0 0 0 0-3 1.4-5.7 3.8-7.5l-.3-.4L17.3 32.3zM25.3 27v-3.2l-3 1c-.2.1-.4.1-.6 0l-3.1-1V27c0 .2-.1.4-.2.6l-1.9 2.6 2.9.9h.1.1c.2.1.4.2.5.4l1.9 2.7 1.9-2.6c.1-.2.3-.3.5-.4l3.1-1-1.9-2.5C25.4 27.4 25.3 27.2 25.3 27zM35.9 17l-1.5-.8-.5.1c.8 3.6-.4 7.3-3.1 9.8-.4.4-.4.9 0 1.3.2.2.4.3.7.3.2 0 .4-.1.6-.2C35.1 24.8 36.5 20.9 35.9 17zM34.4 14.4h.1c.2 0 .3 0 .4.1l.1.1h.1l3.8 2 .7-4.5c0-.2.1-.4.3-.5l3.3-3.2-4.1-2c-.2-.1-.3-.2-.4-.4l-2-4.1-3.2 3.3c-.1.1-.3.2-.5.3L28.4 6l2.1 4c.1.2.1.4.1.6l-.8 4.5L34.4 14.4zM40.7 43.8l-.4.1c.5 3.7-.5 11.7-6.6 14.7-.5.2-.6.8-.4 1.2.1.3.5.5.8.5.1 0 .3 0 .4-.1 6.4-3.1 8.1-10.9 7.8-15.6L40.7 43.8zM45.9 32.9c-.2-.1-.3-.2-.4-.4l-2.3-4.6-3.6 3.7c-.1.1-.3.2-.5.3l-5.1.8 2.4 4.6c.1.2.1.4.1.6l-.9 5.1 5.1-.9h.2c.1 0 .3 0 .4.1l.2.1 4.4 2.3.8-5.1c0-.2.1-.4.3-.5l3.7-3.6L45.9 32.9z"></path>
</svg>
