<svg xmlns="http://www.w3.org/2000/svg" width="512" height="512" fill="none" viewBox="0 0 512 512" id="settings">
  <path fill="#000" d="M390.232 408.913C390.232 433.65 370.178 453.703 345.441 453.703 320.704 453.703 300.651 433.65 300.651 408.913V264.899C309.511 270.918 319.631 275.221 330.533 277.331V409.013C330.533 417.33 337.275 424.072 345.592 424.072 353.909 424.072 360.651 417.33 360.651 409.013V277.475C371.408 275.499 381.42 271.393 390.232 265.609V408.913ZM300.651 106.746V131.189C309.511 125.17 319.631 120.867 330.533 118.757V107.725C330.533 99.4085 337.275 92.6665 345.592 92.6665 353.909 92.6665 360.651 99.4085 360.651 107.725V118.613C371.408 120.589 381.42 124.695 390.232 130.48V106.746C390.232 82.0084 370.178 61.9551 345.441 61.9551 320.704 61.9551 300.651 82.0084 300.651 106.746ZM345.973 147.204C317.894 147.204 295.132 169.966 295.132 198.044 295.132 226.123 317.894 248.885 345.973 248.885 374.051 248.885 396.813 226.123 396.813 198.044 396.813 169.966 374.051 147.204 345.973 147.204ZM121.156 106.746C121.156 82.0084 141.209 61.9551 165.946 61.9551 190.683 61.9551 210.737 82.0084 210.737 106.746L210.737 250.759C201.876 244.741 191.756 240.438 180.854 238.327L180.854 106.645C180.854 98.3286 174.112 91.5865 165.796 91.5865 157.479 91.5865 150.737 98.3286 150.737 106.645L150.737 238.184C139.979 240.159 129.968 244.266 121.156 250.05L121.156 106.746ZM210.737 408.913V384.47C201.876 390.488 191.756 394.791 180.854 396.901V407.933C180.854 416.25 174.112 422.992 165.795 422.992 157.479 422.992 150.737 416.25 150.737 407.933V397.045C139.979 395.07 129.968 390.963 121.156 385.179L121.156 408.913C121.156 433.65 141.209 453.703 165.946 453.703 190.683 453.703 210.737 433.65 210.737 408.913ZM165.415 368.455C193.493 368.455 216.256 345.693 216.256 317.614 216.256 289.535 193.493 266.773 165.415 266.773 137.336 266.773 114.574 289.535 114.574 317.614 114.574 345.692 137.336 368.455 165.415 368.455Z"></path>
</svg>
