<svg xmlns="http://www.w3.org/2000/svg" fill="none" viewBox="0 0 24 24" id="foodrating">
  <path fill="#004aad" fill-rule="evenodd" d="M4.5 22C4.5 21.7239 4.72386 21.5 5 21.5L19 21.5C19.2761 21.5 19.5 21.7239 19.5 22C19.5 22.2761 19.2761 22.5 19 22.5L5 22.5C4.72386 22.5 4.5 22.2761 4.5 22Z" clip-rule="evenodd" class="color000000 svgShape"></path>
  <path fill="#004aad" fill-rule="evenodd" d="M6.52242 21.5H17.4776C17.225 18.6967 14.869 16.5 12 16.5C9.13098 16.5 6.77504 18.6967 6.52242 21.5ZM5.5 22C5.5 18.4101 8.41015 15.5 12 15.5C15.5899 15.5 18.5 18.4101 18.5 22C18.5 22.2761 18.2761 22.5 18 22.5H6C5.72386 22.5 5.5 22.2761 5.5 22Z" clip-rule="evenodd" class="color000000 svgShape"></path>
  <path fill="#004aad" fill-rule="evenodd" d="M12 14.5C12.2761 14.5 12.5 14.7239 12.5 15V16C12.5 16.2761 12.2761 16.5 12 16.5 11.7239 16.5 11.5 16.2761 11.5 16V15C11.5 14.7239 11.7239 14.5 12 14.5zM11.9995 1.5C12.1591 1.5 12.309 1.57611 12.4032 1.70488L13.766 3.56873 15.9597 4.28887C16.1113 4.33863 16.23 4.45771 16.2793 4.60942 16.3286 4.76113 16.3025 4.92726 16.2092 5.0566L14.8577 6.92866 14.8507 9.23758C14.8502 9.3971 14.7736 9.54681 14.6446 9.64058 14.5155 9.73434 14.3495 9.7609 14.1976 9.71206L11.9995 9.00522 9.80147 9.71206C9.64961 9.7609 9.48356 9.73434 9.35451 9.64058 9.22546 9.54681 9.14889 9.3971 9.1484 9.23758L9.14141 6.92866 7.78992 5.0566C7.69655 4.92726 7.67049 4.76113 7.71979 4.60942 7.76908 4.45771 7.88781 4.33863 8.03937 4.28887L10.2331 3.56873 11.5959 1.70488C11.6901 1.57611 11.84 1.5 11.9995 1.5zM11.9995 2.84712L10.9455 4.28875C10.8837 4.37315 10.7971 4.43609 10.6978 4.4687L9.00098 5.02571 10.0463 6.4737C10.1075 6.55847 10.1406 6.66029 10.1409 6.76485L10.1463 8.55073 11.8465 8.00401C11.946 7.972 12.0531 7.972 12.1526 8.00401L13.8528 8.55073 13.8582 6.76485C13.8585 6.66029 13.8916 6.55847 13.9528 6.4737L14.9981 5.02571 13.3013 4.4687C13.202 4.43609 13.1153 4.37315 13.0536 4.28875L11.9995 2.84712zM4.99966 8.5C5.15918 8.5 5.30912 8.57611 5.40327 8.70488L6.40165 10.0703 8.00877 10.5979C8.16034 10.6476 8.27906 10.7667 8.32836 10.9184 8.37765 11.0702 8.3516 11.2363 8.25822 11.3656L7.26813 12.7371 7.26301 14.4286C7.26253 14.5881 7.18596 14.7378 7.05691 14.8316 6.92785 14.9253 6.76181 14.9519 6.60995 14.903L4.99966 14.3852 3.38937 14.903C3.23751 14.9519 3.07146 14.9253 2.94241 14.8316 2.81336 14.7378 2.73679 14.5881 2.7363 14.4286L2.73118 12.7371 1.74109 11.3656C1.64772 11.2363 1.62167 11.0702 1.67096 10.9184 1.72025 10.7667 1.83898 10.6476 1.99054 10.5979L3.59766 10.0703 4.59604 8.70488C4.69019 8.57611 4.84014 8.5 4.99966 8.5zM4.99966 9.84712L4.30999 10.7903C4.24828 10.8747 4.16166 10.9377 4.06232 10.9703L2.95215 11.3347 3.63609 12.2821C3.69729 12.3669 3.73037 12.4687 3.73069 12.5733L3.73423 13.7417 4.84659 13.384C4.94612 13.352 5.05319 13.352 5.15273 13.384L6.26509 13.7417 6.26863 12.5733C6.26894 12.4687 6.30203 12.3669 6.36323 12.2821L7.04716 11.3347 5.93699 10.9703C5.83765 10.9377 5.75103 10.8747 5.68932 10.7903L4.99966 9.84712zM18.9997 8.5C19.1592 8.5 19.3091 8.57611 19.4033 8.70488L20.4017 10.0703 22.0088 10.5979C22.1603 10.6476 22.2791 10.7667 22.3284 10.9184 22.3776 11.0702 22.3516 11.2363 22.2582 11.3656L21.2681 12.7371 21.263 14.4286C21.2625 14.5881 21.186 14.7378 21.0569 14.8316 20.9279 14.9253 20.7618 14.9519 20.6099 14.903L18.9997 14.3852 17.3894 14.903C17.2375 14.9519 17.0715 14.9253 16.9424 14.8316 16.8134 14.7378 16.7368 14.5881 16.7363 14.4286L16.7312 12.7371 15.7411 11.3656C15.6477 11.2363 15.6217 11.0702 15.671 10.9184 15.7203 10.7667 15.839 10.6476 15.9905 10.5979L17.5977 10.0703 18.596 8.70488C18.6902 8.57611 18.8401 8.5 18.9997 8.5zM18.9997 9.84712L18.31 10.7903C18.2483 10.8747 18.1617 10.9377 18.0623 10.9703L16.9522 11.3347 17.6361 12.2821C17.6973 12.3669 17.7304 12.4687 17.7307 12.5733L17.7342 13.7417 18.8466 13.384C18.9461 13.352 19.0532 13.352 19.1527 13.384L20.2651 13.7417 20.2686 12.5733C20.2689 12.4687 20.302 12.3669 20.3632 12.2821L21.0472 11.3347 19.937 10.9703C19.8377 10.9377 19.751 10.8747 19.6893 10.7903L18.9997 9.84712z" clip-rule="evenodd" class="color000000 svgShape"></path>
</svg>
