<svg xmlns="http://www.w3.org/2000/svg" xml:space="preserve" viewBox="0 0 24 24" enable-background="new 0 0 24 24" id="rating">
  <g id="Layer_2" fill="#004aad" class="color000000 svgShape">
    <g fill="#004aad" class="color000000 svgShape">
      <path d="M3.64062,11.66943c-0.71826,0.20898-1.28711,0.76025-1.52197,1.4751c-0.2373,0.7207-0.10352,1.51025,0.35889,2.11475
			l0.58447,0.76074l-0.02148,0.95654c-0.0249,0.75488,0.32227,1.47119,0.92969,1.91602
			c0.60938,0.44678,1.39893,0.56348,2.11182,0.31055L7,18.87988l0.91553,0.32227c0.25146,0.08936,0.51025,0.13281,0.76709,0.13281
			c0.44727,0,0.88434-0.13696,1.26044-0.39008c0.02722-0.00446,0.05457-0.00842,0.08136-0.0152
			c0.09229-0.02344,0.20898-0.05762,0.37061-0.10742l1.60547-0.57129l1.6499,0.58594
			c0.11621,0.03516,0.23291,0.06934,0.3252,0.09277c0.02692,0.00684,0.05438,0.01074,0.08167,0.01526
			c0.37634,0.25305,0.81335,0.39001,1.26062,0.39001c0.25586,0,0.51416-0.04297,0.76416-0.13184L17,18.87988l0.91699,0.32275
			c0.71436,0.25244,1.50342,0.13623,2.11279-0.31006c0.60742-0.44482,0.95459-1.16113,0.92969-1.90527l-0.02148-0.96729
			l0.58447-0.76074c0.00098-0.00049,0.00146-0.00146,0.00195-0.00195c0.46045-0.60254,0.59424-1.39209,0.35693-2.11279
			c-0.23486-0.71484-0.80371-1.26611-1.51465-1.47266l-0.93164-0.27881l-0.21301-0.31085
			c0.02582-1.354-0.82941-2.56763-2.14099-2.95184l-1.63672-0.47949L14.4834,6.24219C13.9209,5.42676,12.99268,4.93994,12,4.93994
			s-1.9209,0.48682-2.48633,1.30664l-0.95801,1.4043L6.91895,8.13037c-1.31158,0.38422-2.16681,1.59784-2.14099,2.95184
			l-0.21301,0.31085L3.64062,11.66943z M5.41699,17.31689c-0.125,0.04492-0.21973-0.00488-0.26514-0.0376
			c-0.05322-0.03955-0.1167-0.1123-0.1123-0.24707l0.02979-1.31982c0.00537-0.22803-0.06787-0.45117-0.20703-0.63184
			l-0.79785-1.03809C3.98193,13.93457,4,13.82471,4.01855,13.76904c0.021-0.06396,0.06934-0.14648,0.18799-0.18115l1.27002-0.37988
			c0.04932-0.01465,0.09766-0.0332,0.14355-0.05518l0.81006,1.05371l-0.0498,1.70898
			c-0.00494,0.19843,0.01361,0.39209,0.04547,0.58215c0.00983,0.05865,0.02686,0.11444,0.0401,0.17212
			c0.01971,0.08582,0.03278,0.17371,0.05994,0.25696L5.41699,17.31689z M19.80078,13.59033
			c0.11133,0.03223,0.15967,0.11475,0.18066,0.17871c0.01855,0.05566,0.03662,0.16553-0.0459,0.27344l-0.79785,1.03809
			c-0.13916,0.18066-0.2124,0.40381-0.20703,0.63184l0.02979,1.33057c0.00439,0.12402-0.05908,0.19678-0.1123,0.23633
			c-0.04541,0.03271-0.14209,0.08057-0.26611,0.03711l-1.10791-0.39014c0.0271-0.08362,0.04028-0.17212,0.06-0.25842
			c0.01324-0.0578,0.03021-0.11389,0.04004-0.17273c0.0318-0.19055,0.05042-0.38495,0.04547-0.58447l-0.0498-1.7041l0.81006-1.05371
			c0.0459,0.02197,0.09424,0.04053,0.14355,0.05518L19.80078,13.59033z M7.48145,10.04932l1.97998-0.58008
			c0.22168-0.06494,0.41455-0.20459,0.54492-0.396l1.15674-1.69531c0.38379-0.55664,1.29297-0.55225,1.6709-0.00439l1.15967,1.69971
			c0.13037,0.19141,0.32324,0.33105,0.54492,0.396l1.97998,0.58008c0.51758,0.15186,0.74658,0.64453,0.71191,1.06738
			c-0.00977,0.0376-0.01709,0.07617-0.02197,0.11523c-0.01709,0.13184-0.07715,0.26465-0.18164,0.39893l-1.25977,1.63965
			c-0.14014,0.18262-0.21338,0.4082-0.20654,0.63867l0.06006,2.05518c0.00684,0.2876-0.10303,0.55371-0.30957,0.74951
			c-0.10419,0.09937-0.22742,0.17505-0.36499,0.22247c-0.01459,0.00513-0.03088,0.00165-0.04565,0.00616
			c-0.12823,0.0379-0.26495,0.05933-0.41406,0.04382l-0.07373-0.00977c-0.05371-0.01465-0.10889-0.03125-0.1377-0.03906
			l-1.93994-0.68994c-0.2168-0.07715-0.45312-0.07715-0.66992,0l-1.89453,0.67529c-0.06543,0.01953-0.13086,0.03955-0.18799,0.05518
			l-0.10986,0.01514c-0.28809,0.02002-0.57324-0.08008-0.78369-0.2793c-0.20654-0.1958-0.31641-0.46191-0.30957-0.74463
			l0.06006-2.06006c0.00684-0.23047-0.06641-0.45605-0.20654-0.63867l-1.26367-1.64453
			c-0.10059-0.12939-0.16064-0.26221-0.17773-0.39404c-0.00439-0.03467-0.01221-0.07373-0.02148-0.11133
			C6.7334,10.69727,6.96191,10.20166,7.48145,10.04932z" fill="#004aad" class="color000000 svgShape"></path>
    </g>
  </g>
</svg>
