<svg xmlns="http://www.w3.org/2000/svg" viewBox="0 0 48 48" id="Restaurant">
  <path d="M12.74 7.836v.002a.499.499 0 0 0-.353.854l3.537 3.535 2.12 2.121a.499.499 0 1 1-.706.707l-2.121-2.12-3.537-3.536a.499.499 0 1 0-.707.707l3.537 3.535 2.12 2.121a.499.499 0 1 1-.706.707l-2.121-2.12-3.537-3.536a.499.499 0 1 0-.707.707l3.535 3.535h.006l2.119 2.12a.499.499 0 1 1-.707.706l-2.123-2.12-3.182-3.182-.353-.354a.499.499 0 1 0-.707.707l.353.354 3.182 3.181 2.12 2.123 1.063 1.061a1.484 1.484 0 0 0 1.627.316l1.532-.646L37.254 39.7a.962.962 0 0 0 1.381.019l1.205-1.203a1.021 1.021 0 0 0-.021-1.465L19.485 17.857l.646-1.529a1.484 1.484 0 0 0-.318-1.629l-3.182-3.182-3.537-3.535a.498.498 0 0 0-.354-.146zM37.385 9.51c-3.293.012-5.995 1.546-8.58 4.131l-5.99 5.99 3.638 3.432L39.763 9.75a11.9 11.9 0 0 0-2.378-.24zm-16.33 14.485L8.684 35.243a.952.952 0 0 0-.034 1.379l1.416 1.414a1 1 0 0 0 1.414 0L23.225 26.29l-2.17-2.296z" fill="#ffffff" class="color000000 svgShape"></path>
</svg>
