<svg width="18" height="17" viewBox="0 0 18 17" fill="none" xmlns="http://www.w3.org/2000/svg">
<path d="M6.70833 16.8333L6.375 14.1667C6.19444 14.0972 6.02431 14.0139 5.86458 13.9167C5.70486 13.8194 5.54861 13.7153 5.39583 13.6042L2.91667 14.6458L0.625 10.6875L2.77083 9.06249C2.75694 8.96527 2.75 8.87152 2.75 8.78124V8.21874C2.75 8.12846 2.75694 8.03471 2.77083 7.93749L0.625 6.31249L2.91667 2.35416L5.39583 3.39582C5.54861 3.28471 5.70833 3.18055 5.875 3.08332C6.04167 2.9861 6.20833 2.90277 6.375 2.83332L6.70833 0.166656H11.2917L11.625 2.83332C11.8056 2.90277 11.9757 2.9861 12.1354 3.08332C12.2951 3.18055 12.4514 3.28471 12.6042 3.39582L15.0833 2.35416L17.375 6.31249L15.2292 7.93749C15.2431 8.03471 15.25 8.12846 15.25 8.21874V8.78124C15.25 8.87152 15.2361 8.96527 15.2083 9.06249L17.3542 10.6875L15.0625 14.6458L12.6042 13.6042C12.4514 13.7153 12.2917 13.8194 12.125 13.9167C11.9583 14.0139 11.7917 14.0972 11.625 14.1667L11.2917 16.8333H6.70833ZM8.16667 15.1667H9.8125L10.1042 12.9583C10.5347 12.8472 10.934 12.684 11.3021 12.4687C11.6701 12.2535 12.0069 11.993 12.3125 11.6875L14.375 12.5417L15.1875 11.125L13.3958 9.77082C13.4653 9.57638 13.5139 9.37152 13.5417 9.15624C13.5694 8.94096 13.5833 8.72221 13.5833 8.49999C13.5833 8.27777 13.5694 8.05902 13.5417 7.84374C13.5139 7.62846 13.4653 7.4236 13.3958 7.22916L15.1875 5.87499L14.375 4.45832L12.3125 5.33332C12.0069 5.01388 11.6701 4.74652 11.3021 4.53124C10.934 4.31596 10.5347 4.15277 10.1042 4.04166L9.83333 1.83332H8.1875L7.89583 4.04166C7.46528 4.15277 7.06597 4.31596 6.69792 4.53124C6.32986 4.74652 5.99306 5.00693 5.6875 5.31249L3.625 4.45832L2.8125 5.87499L4.60417 7.20832C4.53472 7.41666 4.48611 7.62499 4.45833 7.83332C4.43056 8.04166 4.41667 8.26388 4.41667 8.49999C4.41667 8.72221 4.43056 8.93749 4.45833 9.14582C4.48611 9.35416 4.53472 9.56249 4.60417 9.77082L2.8125 11.125L3.625 12.5417L5.6875 11.6667C5.99306 11.9861 6.32986 12.2535 6.69792 12.4687C7.06597 12.684 7.46528 12.8472 7.89583 12.9583L8.16667 15.1667ZM9.04167 11.4167C9.84722 11.4167 10.5347 11.1319 11.1042 10.5625C11.6736 9.99305 11.9583 9.30555 11.9583 8.49999C11.9583 7.69443 11.6736 7.00693 11.1042 6.43749C10.5347 5.86805 9.84722 5.58332 9.04167 5.58332C8.22222 5.58332 7.53125 5.86805 6.96875 6.43749C6.40625 7.00693 6.125 7.69443 6.125 8.49999C6.125 9.30555 6.40625 9.99305 6.96875 10.5625C7.53125 11.1319 8.22222 11.4167 9.04167 11.4167Z" fill="black"/>
</svg>
