<svg xmlns="http://www.w3.org/2000/svg" enable-background="new 0 0 64 64" viewBox="0 0 64 64" id="Vegan">
  <path d="M53.6406,8.9805c-0.417-0.3086-0.9619-0.3799-1.4404-0.1919c-3.3242,1.3018-7.3252,1.8433-11.5596,2.4165
	c-6.1455,0.8315-13.1113,1.7744-20.1055,5.25c-5.1025,2.5361-8.1602,6.1831-9.0869,10.8398
	c-1.189,5.9761,1.5601,12.1673,4.0172,15.4323c-2.3234,3.6113-4.2247,7.196-5.5983,10.5135
	c-0.3174,0.7651,0.0469,1.6426,0.8115,1.9595c0.1885,0.0776,0.3828,0.1147,0.5732,0.1147c0.5889,0,1.1475-0.3491,1.3867-0.9268
	c1.2627-3.0497,2.9865-6.3342,5.0868-9.65c2.1503,1.3035,5.2211,2.2076,8.8253,2.2076c4.3281,0,9.4033-1.2954,14.4932-4.7383
	c11.375-7.6948,12.3203-20.2554,13.0801-30.3481l0.1182-1.5571C54.2832,9.7871,54.0547,9.2881,53.6406,8.9805z M39.3623,39.7227
	c-8.0906,5.4736-16.1221,4.8232-19.9835,2.5202c3.3702-4.8828,7.5453-9.7127,12.3297-13.8712l8.5308,1.7303
	c0.1006,0.0205,0.2002,0.0303,0.2998,0.0303c0.6982,0,1.3242-0.4912,1.4678-1.2021c0.165-0.812-0.3594-1.6035-1.1719-1.7686
	l-6.1307-1.2435c2.6249-2.0129,5.3966-3.8149,8.3036-5.2911c0.7393-0.375,1.0342-1.2778,0.6592-2.0166s-1.2812-1.0317-2.0166-0.6582
	c-3.9824,2.0222-7.7269,4.6146-11.1863,7.5424c-0.1099,0.0709-0.207,0.1588-0.2954,0.2562c-1.4891,1.275-2.9255,2.607-4.2983,3.9918
	l-0.8547-5.0292c-0.1387-0.8169-0.917-1.3599-1.7295-1.2275c-0.8174,0.1392-1.3662,0.9136-1.2275,1.7305l1.2344,7.2631
	c-2.208,2.4558-4.2261,5.0079-6.0332,7.5817c-1.8745-2.8819-3.7642-7.6827-2.8691-12.1807
	c0.7363-3.6978,3.2529-6.6377,7.4805-8.7388c6.5508-3.2554,13.2559-4.1631,19.1719-4.9639
	c3.5498-0.4805,6.9424-0.9395,10.0371-1.8447C50.3398,22.0981,49.2979,33.002,39.3623,39.7227z" fill="#ffffff" class="color000000 svgShape"></path>
</svg>
