<svg xmlns="http://www.w3.org/2000/svg" fill="none" viewBox="0 0 24 24" id="leaves">
  <path fill="#ffffff" fill-rule="evenodd" d="M5.457 3.58503C5.66977 3.6009 5.84903 3.75004 5.90334 3.95637L5.90645 3.96819C6.12222 4.78796 6.35407 5.66879 7.01503 6.55624C7.67573 7.44333 8.79833 8.37681 10.8624 9.19354C11.9793 9.63548 12.7414 10.2708 13.2319 11.0251C13.7193 11.7746 13.9157 12.6058 13.9632 13.407C14.0104 14.2057 13.9107 14.9932 13.7906 15.6713C13.7375 15.9711 13.6793 16.255 13.6273 16.5089C13.6204 16.5424 13.6136 16.5754 13.607 16.6078C13.549 16.8915 13.5028 17.1257 13.477 17.3163C13.4525 17.498 13.3304 17.6517 13.159 17.7168C12.9875 17.7819 12.7942 17.7479 12.6553 17.6282L7.94256 13.5699C8.15094 14.0901 8.48286 14.7294 9.012 15.4395C9.74326 16.4209 10.5358 17.188 11.1464 17.7098C11.4512 17.9703 11.7092 18.1684 11.8895 18.3004C11.9797 18.3664 12.0502 18.4158 12.0974 18.4481C12.1209 18.4643 12.1387 18.4761 12.15 18.4837L12.1622 18.4917L12.1645 18.4932C12.3764 18.63 12.4534 18.9032 12.344 19.1304C12.2346 19.3576 11.973 19.4678 11.734 19.3873C11.5776 19.3347 11.4084 19.2795 11.2286 19.221C9.52668 18.6666 6.87486 17.8028 5.12496 15.7866C3.12806 13.4858 2.40054 9.83642 4.96051 3.88605C5.04483 3.69006 5.24423 3.56916 5.457 3.58503ZM9.50382 17.5431C9.08202 17.1135 8.63699 16.6099 8.21014 16.0371C7.41463 14.9695 7.00862 14.0257 6.802 13.3364C6.69884 12.9922 6.64572 12.7125 6.61839 12.5137C6.58106 12.2422 6.58623 11.8565 6.88055 11.7211C7.05833 11.6394 7.26746 11.6688 7.41574 11.7965L12.6487 16.3029C12.7006 16.0495 12.7556 15.7808 12.8059 15.4969C12.9206 14.8495 13.0054 14.1507 12.9649 13.4661C12.9245 12.784 12.7607 12.1348 12.3936 11.5703C12.0297 11.0107 11.4428 10.4986 10.4945 10.1234C8.29938 9.25482 7.00879 8.22199 6.21303 7.15356C5.81591 6.62037 5.5503 6.0882 5.35699 5.58684C3.54006 10.5224 4.35623 13.3753 5.88018 15.1312C6.87897 16.282 8.21672 17.0154 9.50382 17.5431Z" clip-rule="evenodd" class="color000000 svgShape"></path>
  <path fill="#ffffff" fill-rule="evenodd" d="M19.1193 5.7228C18.9231 5.71425 18.74 5.8214 18.6513 5.9967C18.5427 6.21147 18.4447 6.42845 18.3439 6.65129C18.1107 7.1674 17.8632 7.71494 17.4378 8.33925C16.8484 9.20436 15.9279 10.1822 14.2915 11.185C14.0561 11.3292 13.9822 11.6371 14.1264 11.8725C14.2707 12.108 14.5785 12.1819 14.814 12.0376C16.5631 10.9658 17.5901 9.89176 18.2642 8.90231C18.594 8.41828 18.8427 7.94439 19.0454 7.52003C20.5102 11.8351 19.8089 14.5588 18.5181 16.2188C17.6279 17.3636 16.4195 18.0541 15.3188 18.4127C15.8828 17.8554 16.5013 17.1154 16.9472 16.2236C17.4759 15.1663 17.7377 14.115 17.8682 13.3322C17.9336 12.9397 17.9665 12.6115 17.9831 12.3794C17.9914 12.2633 17.9956 12.171 17.9978 12.1065C17.9988 12.0743 17.9994 12.049 17.9997 12.0311L17.9999 12.0098L18 12.0035L18 12.0014L18 12.0003C18 12.0002 18 12 17.5 12L18 12.0003C18 11.7892 17.8674 11.6006 17.6688 11.5294C17.4701 11.4581 17.248 11.5193 17.1139 11.6823L14.1064 15.3371C13.9309 15.5503 13.9615 15.8654 14.1748 16.0409C14.388 16.2163 14.7031 16.1857 14.8785 15.9725L16.7892 13.6507C16.6513 14.2853 16.4246 15.0328 16.0528 15.7764C15.5907 16.7007 14.8981 17.459 14.3082 17.9922C14.0151 18.257 13.7522 18.462 13.5638 18.6C13.4698 18.6688 13.3946 18.7207 13.344 18.7548C13.3187 18.7718 13.2996 18.7843 13.2874 18.7923L13.2742 18.8007L13.272 18.8021C13.0827 18.9205 12.9946 19.1501 13.0564 19.3646C13.1182 19.5792 13.3149 19.7268 13.5382 19.7262C15.0875 19.722 17.6534 18.9599 19.3075 16.8327C20.9914 14.6672 21.6367 11.2156 19.5617 6.03638C19.4886 5.85403 19.3156 5.73136 19.1193 5.7228Z" clip-rule="evenodd" class="color000000 svgShape"></path>
</svg>
