<svg width="24" height="24" viewBox="0 0 24 24" fill="none" xmlns="http://www.w3.org/2000/svg">
<path fill-rule="evenodd" clip-rule="evenodd" d="M11.0625 7C8.29673 7 6.125 9.14234 6.125 11.7C6.125 11.7826 6.12723 11.8647 6.13163 11.9461C6.14644 12.2202 6.04786 12.4885 5.85901 12.6878C5.67016 12.8871 5.40766 13 5.13308 13H5.125C3.91253 13 3 13.9335 3 15C3 16.0665 3.91253 17 5.125 17H17.625C17.9552 17 18.2645 16.9297 18.5394 16.806C18.5635 16.7951 18.5879 16.7853 18.6128 16.7764C20.0295 16.2693 21 14.9761 21 13.5C21 11.6051 19.3879 10 17.3125 10C17.0476 10 16.7902 10.0264 16.5429 10.0762C16.1106 10.1632 15.6724 9.95686 15.4641 9.56823C14.6533 8.05526 12.9964 7 11.0625 7ZM4.15109 11.1129C4.4599 7.65624 7.47073 5 11.0625 5C13.4746 5 15.6134 6.19148 16.859 8.01727C17.0088 8.00582 17.16 8 17.3125 8C20.4148 8 23 10.4244 23 13.5C23 15.8752 21.4506 17.8686 19.3232 18.6462C18.8033 18.8741 18.2276 19 17.625 19H5.125C2.88569 19 1 17.2472 1 15C1 13.0882 2.36482 11.5342 4.15109 11.1129Z" fill="#004AAD"/>
</svg>
