<svg width="24" height="24" viewBox="0 0 24 24" fill="none" xmlns="http://www.w3.org/2000/svg">
<path fill-rule="evenodd" clip-rule="evenodd" d="M14.3438 11C12.5144 11 11.1875 12.3361 11.1875 13.8C11.1875 13.8482 11.1889 13.896 11.1916 13.9434C11.2071 14.218 11.1089 14.4869 10.92 14.6868C10.7311 14.8867 10.4682 15 10.1932 15H10.1875C9.44543 15 9 15.5302 9 16C9 16.4698 9.44543 17 10.1875 17H18.9375C19.1329 17 19.3132 16.9604 19.4709 16.8928C19.4943 16.8827 19.5181 16.8736 19.5422 16.8654C20.443 16.5584 21 15.8013 21 15C21 13.9779 20.0649 13 18.7188 13C18.5501 13 18.3867 13.016 18.2302 13.046C17.8079 13.127 17.3812 12.929 17.1704 12.5543C16.6663 11.6586 15.6115 11 14.3438 11ZM9.23518 13.1384C9.58481 10.7399 11.8099 9 14.3438 9C16.0483 9 17.5892 9.77404 18.5361 11.0036C18.5967 11.0012 18.6576 11 18.7188 11C20.997 11 23 12.7084 23 15C23 16.7622 21.7986 18.1942 20.2226 18.7463C19.8268 18.9104 19.3913 19 18.9375 19H10.1875C8.51333 19 7 17.7393 7 16C7 14.6003 7.98 13.5106 9.23518 13.1384Z" fill="#004AAD"/>
<path fill-rule="evenodd" clip-rule="evenodd" d="M9.65625 7C11.4856 7 12.8125 8.33606 12.8125 9.8C12.8125 9.84819 12.8111 9.89599 12.8084 9.94338L14.8052 10.0566C14.8101 9.97155 14.8125 9.88599 14.8125 9.8C14.8125 7.06657 12.4177 5 9.65625 5C7.95168 5 6.41084 5.77404 5.46391 7.00358C5.40329 7.0012 5.3424 7 5.28125 7C3.00301 7 1 8.7084 1 11C1 12.7622 2.20144 14.1942 3.7774 14.7463C4.17323 14.9104 4.60874 15 5.0625 15H10V13H5.0625C4.86711 13 4.68679 12.9604 4.52908 12.8928C4.50568 12.8827 4.4819 12.8736 4.45779 12.8654C3.55697 12.5584 3 11.8013 3 11C3 9.97789 3.93512 9 5.28125 9C5.44994 9 5.61331 9.016 5.76982 9.04601C6.19206 9.12698 6.61878 8.929 6.82963 8.55432C7.33365 7.65865 8.38847 7 9.65625 7Z" fill="#004AAD"/>
</svg>
