<svg xmlns="http://www.w3.org/2000/svg" xmlns:xlink="http://www.w3.org/1999/xlink" width="402" zoomAndPan="magnify" viewBox="0 0 301.5 255.749992" height="341" preserveAspectRatio="xMidYMid meet" version="1.0"><defs><g/><clipPath id="0bfa1e1335"><path d="M 20 43 L 183 43 L 183 219 L 20 219 Z M 20 43 " clip-rule="nonzero"/></clipPath><clipPath id="6f1883fd73"><path d="M 239.628906 181.203125 L 59.53125 255.125 L -0.175781 109.664062 L 179.921875 35.742188 Z M 239.628906 181.203125 " clip-rule="nonzero"/></clipPath><clipPath id="46c223687f"><path d="M 239.628906 181.203125 L 59.53125 255.125 L -0.175781 109.664062 L 179.921875 35.742188 Z M 239.628906 181.203125 " clip-rule="nonzero"/></clipPath><clipPath id="ac93bbfa7b"><path d="M 126 35 L 282 35 L 282 203 L 126 203 Z M 126 35 " clip-rule="nonzero"/></clipPath><clipPath id="a0007811a4"><path d="M 71.855469 70.664062 L 243.636719 0.15625 L 300.5 138.691406 L 128.71875 209.199219 Z M 71.855469 70.664062 " clip-rule="nonzero"/></clipPath><clipPath id="b7147391f4"><path d="M 71.855469 70.664062 L 243.636719 0.15625 L 300.5 138.691406 L 128.71875 209.199219 Z M 71.855469 70.664062 " clip-rule="nonzero"/></clipPath></defs><g fill="#f3ebde" fill-opacity="1"><g transform="translate(132.673176, 157.92256)"><g><path d="M 0.90625 0 L 0.90625 -23.265625 L 12.875 -23.265625 C 12.738281 -23.523438 12.585938 -23.769531 12.421875 -24 C 12.253906 -24.238281 12.109375 -24.457031 11.984375 -24.65625 L 5.1875 -24.65625 C 2.863281 -27.988281 1.632812 -31.484375 1.5 -35.140625 C 1.363281 -38.796875 2.03125 -42.023438 3.5 -44.828125 C 5.15625 -48.015625 7.265625 -50.421875 9.828125 -52.046875 C 12.390625 -53.679688 15.316406 -54.765625 18.609375 -55.296875 C 21.910156 -55.835938 25.457031 -56.109375 29.25 -56.109375 L 57.703125 -56.109375 L 57.703125 -33.546875 L 29.25 -33.546875 C 27.320312 -33.546875 25.84375 -32.863281 24.8125 -31.5 C 23.78125 -30.132812 23.394531 -28.6875 23.65625 -27.15625 C 23.925781 -25.957031 24.539062 -24.859375 25.5 -23.859375 C 26.46875 -22.859375 27.785156 -22.359375 29.453125 -22.359375 C 31.441406 -22.359375 32.867188 -23.003906 33.734375 -24.296875 C 34.609375 -25.597656 34.910156 -27.046875 34.640625 -28.640625 C 34.367188 -30.242188 33.46875 -31.410156 31.9375 -32.140625 L 51.90625 -32.140625 C 54.101562 -29.816406 55.597656 -27.375 56.390625 -24.8125 C 57.191406 -22.25 57.476562 -19.769531 57.25 -17.375 C 57.019531 -14.976562 56.40625 -12.8125 55.40625 -10.875 C 53.738281 -7.6875 51.609375 -5.328125 49.015625 -3.796875 C 46.421875 -2.265625 43.457031 -1.25 40.125 -0.75 C 36.800781 -0.25 33.242188 0 29.453125 0 Z M 0.90625 0 "/></g></g></g><g fill="#f3ebde" fill-opacity="1"><g transform="translate(105.880376, 157.92256)"><g><path d="M 1 -69.984375 L 25.5625 -69.984375 L 25.5625 0 L 1 0 Z M 1 -69.984375 "/></g></g></g><g clip-path="url(#0bfa1e1335)"><g clip-path="url(#6f1883fd73)"><g clip-path="url(#46c223687f)"><path fill="#f3ebde" d="M 120.84375 60.40625 C 142.140625 51.667969 163.164062 45.972656 182.351562 43.253906 C 169.644531 46.34375 156.460938 50.617188 143.167969 56.070312 C 76.539062 83.417969 32.625 130.183594 45.078125 160.527344 C 53.550781 181.167969 85.933594 188.882812 126.761719 183.105469 C 75.792969 195.546875 32.726562 189.152344 22.753906 164.851562 C 10.300781 134.519531 54.21875 87.753906 120.84375 60.40625 Z M 166.300781 177.527344 L 166.484375 177.972656 C 139.886719 188.886719 139.730469 193.996094 149.671875 218.21875 L 149.226562 218.402344 C 139.285156 194.179688 135.570312 190.660156 108.972656 201.578125 L 108.789062 201.132812 C 135.386719 190.214844 135.5625 185.113281 125.621094 160.890625 L 126.066406 160.707031 C 136.007812 184.933594 139.703125 188.441406 166.300781 177.527344 " fill-opacity="1" fill-rule="evenodd"/></g></g></g><g clip-path="url(#ac93bbfa7b)"><g clip-path="url(#a0007811a4)"><g clip-path="url(#b7147391f4)"><path fill="#f3ebde" d="M 185.328125 186.0625 C 164.988281 194.410156 144.902344 199.855469 126.574219 202.449219 C 138.710938 199.496094 151.308594 195.417969 164.007812 190.203125 C 227.652344 164.078125 269.609375 119.402344 257.710938 90.414062 C 249.617188 70.699219 218.683594 63.328125 179.675781 68.847656 C 228.367188 56.964844 269.511719 63.074219 279.039062 86.285156 C 290.933594 115.261719 248.976562 159.9375 185.328125 186.0625 Z M 141.90625 74.179688 L 141.730469 73.753906 C 167.140625 63.324219 167.289062 58.445312 157.792969 35.304688 L 158.214844 35.128906 C 167.714844 58.269531 171.261719 61.632812 196.671875 51.203125 L 196.847656 51.628906 C 171.4375 62.058594 171.269531 66.929688 180.769531 90.070312 L 180.34375 90.246094 C 170.84375 67.101562 167.3125 63.75 141.90625 74.179688 " fill-opacity="1" fill-rule="evenodd"/></g></g></g></svg>